<svg xmlns="http://www.w3.org/2000/svg" viewBox="0 0 73 24" fill="#1b1b1b">

  <!-- Icon: v5 "A" shape scaled to fill full 24px height -->
  <g transform="translate(-4.394,-4.901) scale(0.08451)">
    <path fill-rule="evenodd" d="M 200 58 L 348 342 L 270 342 L 130 342 L 52 342 Z M 148 342 Q 200 152, 252 342 Z"/>
  </g>

  <!-- Rune wordmark text: 14px tall (~58% of height), vertically centered -->
  <g transform="translate(-35.153,-22.611) scale(0.07778)">
    <path fill-rule="evenodd" d="M 825 443.954 L 825 532.063 836.750 531.782 L 848.500 531.500 848.764 498.750 L 849.027 466 878.571 466 C 897.649 466, 909.744 466.410, 912.716 467.159 C 921.088 469.267, 923.088 472.375, 936.100 503.500 L 947.806 531.500 961.021 531.780 C 971.461 532.001, 974.120 531.791, 973.680 530.780 C 967.823 517.320, 953.622 483.664, 951.448 478.088 C 949.515 473.132, 946.963 468.933, 943.747 465.414 L 938.937 460.151 945.191 456.825 C 961.131 448.349, 969.980 432.700, 969.973 413 C 969.966 390.334, 959.827 373.405, 940.619 363.986 C 926.417 357.021, 924.293 356.784, 871.750 356.287 L 825 355.845 825 443.954 M 849 411.557 L 849 445.114 885.250 444.769 C 926.407 444.377, 927.167 444.252, 935.858 436.437 C 942.896 430.110, 945.392 423.882, 945.452 412.500 C 945.493 404.825, 945.116 402.680, 942.889 397.933 C 939.974 391.717, 934.388 385.762, 928.781 382.894 C 920.545 378.680, 914.146 378.030, 880.750 378.015 L 849 378 849 411.557 M 1175.285 410.001 C 1171.318 411.041, 1167.043 412.428, 1165.785 413.083 C 1160.724 415.720, 1153.935 421.324, 1151.052 425.244 L 1148 429.394 1148 420.197 L 1148 411 1137 411 L 1126 411 1126 470.500 C 1126 503.225, 1125.998 530.337, 1125.996 530.750 C 1125.994 531.163, 1130.915 531.627, 1136.932 531.782 L 1147.871 532.064 1148.205 493.782 C 1148.531 456.337, 1148.590 455.369, 1150.894 449.500 C 1154.094 441.347, 1162.427 433.110, 1170.570 430.050 C 1178.090 427.223, 1190.110 426.885, 1198.064 429.275 C 1206.715 431.875, 1211.642 436.024, 1215.334 443.817 L 1218.500 450.500 1218.802 491.250 L 1219.104 532 1230.552 532 L 1242 532 1241.965 492.750 C 1241.940 464.059, 1241.562 451.434, 1240.560 445.819 C 1238.034 431.652, 1229.720 419.901, 1218.090 414.059 C 1206.150 408.061, 1188.920 406.428, 1175.285 410.001 M 1304 410.055 C 1293.499 412.777, 1284.598 417.529, 1277.389 424.262 C 1266.009 434.891, 1260.271 446.325, 1258.012 462.881 C 1253.550 495.582, 1271.692 524.336, 1302 532.603 C 1312.220 535.390, 1334.998 535.162, 1345.567 532.166 C 1363.266 527.150, 1376.038 515.933, 1382.041 500.134 L 1383.886 495.279 1377.193 494.646 C 1373.512 494.299, 1368.474 494.011, 1365.998 494.007 C 1361.671 494, 1361.403 494.177, 1359.072 498.570 C 1355.853 504.639, 1349.087 510.441, 1342.147 513.085 C 1335.192 515.735, 1320.798 516.723, 1312.935 515.091 C 1295.468 511.464, 1283.484 499.670, 1281.415 484.071 L 1280.742 479 1332.871 479 L 1385 479 1384.983 470.250 C 1384.921 438.965, 1366.615 415.426, 1337.792 409.567 C 1327.297 407.433, 1313.333 407.635, 1304 410.055 M 988 453.053 C 988 500.931, 988.423 504.702, 994.913 514.745 C 1002.910 527.116, 1015.779 533.504, 1035 534.641 C 1052.227 535.660, 1064.203 531.760, 1074.457 521.791 C 1077.733 518.606, 1080.545 516, 1080.707 516 C 1080.868 516, 1081 519.600, 1081 524 L 1081 532 1092 532 L 1103 532 1103 471.500 L 1103 411 1091.500 411 L 1080 411 1080 449.318 C 1080 480.355, 1079.717 488.591, 1078.510 492.655 C 1074.355 506.644, 1060.871 515.414, 1043.500 515.422 C 1028.399 515.429, 1017.781 509.655, 1012.908 498.788 C 1010.558 493.548, 1010.534 493.128, 1010.183 452.250 L 1009.829 411 998.914 411 L 988 411 988 453.053 M 1309.024 428.540 C 1294.919 432.492, 1283.980 443.894, 1281.479 457.250 L 1280.777 461 1321.434 461 L 1362.091 461 1361.465 457.250 C 1360.443 451.116, 1355.269 441.476, 1350.864 437.496 C 1348.599 435.450, 1343.817 432.405, 1340.235 430.729 C 1334.680 428.130, 1332.313 427.633, 1324.112 427.344 C 1317.583 427.115, 1312.743 427.499, 1309.024 428.540"/>
  </g>

</svg>